HIERARCHY
ROOT hip
{
  OFFSET 0.00112043 5.09927 -9.65472
  CHANNELS 6 Xposition Yposition Zposition Zrotation Xrotation Yrotation
  JOINT abdomen
  {
    OFFSET 0 -1.186 -1.5018
    CHANNELS 3 Zrotation Xrotation Yrotation
    JOINT abdomen2
    {
      OFFSET 0 9.964 0.2134
      CHANNELS 3 Zrotation Xrotation Yrotation
      JOINT chest
      {
        OFFSET 0 13.134 -3.2573
        CHANNELS 3 Zrotation Xrotation Yrotation
        JOINT neck
        {
          OFFSET 0 20.686 -1.6905
          CHANNELS 3 Zrotation Xrotation Yrotation
          JOINT head
          {
            OFFSET 0 7.238 -0.1237
            CHANNELS 3 Zrotation Xrotation Yrotation
            End Site
            {
              OFFSET 0 0 0
            }
          }
        }
        JOINT lCollar
        {
          OFFSET 1.7069 20.075 5.0056
          CHANNELS 3 Zrotation Xrotation Yrotation
          JOINT lShldr
          {
            OFFSET 13.6458 -0.047 -4.849
            CHANNELS 3 Zrotation Xrotation Yrotation
            JOINT lForeArm
            {
              OFFSET 28.3255 -0.9759 2.2888
              CHANNELS 3 Zrotation Xrotation Yrotation
              JOINT lHand
              {
                OFFSET 22.1583 -0.53 10.8316
                CHANNELS 3 Zrotation Xrotation Yrotation
                JOINT lThumb1
                {
                  OFFSET 0.786 0.112 2.5817
                  CHANNELS 3 Zrotation Xrotation Yrotation
                  JOINT lThumb2
                  {
                    OFFSET 0.3601 -0.878 4.2331
                    CHANNELS 3 Zrotation Xrotation Yrotation
                    JOINT lThumb2_End
                    {
                      OFFSET 1.8127 -1.216 2.2227
                      CHANNELS 3 Zrotation Xrotation Yrotation
                      End Site
                      {
                        OFFSET 0.0181 -0.0122 0.0222
                      }
                    }
                  }
                }
                JOINT lCarpal1
                {
                  OFFSET 0.9571 1.114 1.7695
                  CHANNELS 3 Zrotation Xrotation Yrotation
                  JOINT lIndex1
                  {
                    OFFSET 4.1246 0.487 4.1451
                    CHANNELS 3 Zrotation Xrotation Yrotation
                    JOINT lIndex2
                    {
                      OFFSET 3.4052 -1.454 2.7682
                      CHANNELS 3 Zrotation Xrotation Yrotation
                      JOINT lIndex2_End
                      {
                        OFFSET 1.4531 -1.795 1.2713
                        CHANNELS 3 Zrotation Xrotation Yrotation
                        End Site
                        {
                          OFFSET 0.0145 -0.0179 0.0127
                        }
                      }
                    }
                  }
                  JOINT lMid1
                  {
                    OFFSET 5.6954 0.21 2.1184
                    CHANNELS 3 Zrotation Xrotation Yrotation
                    JOINT lMid2
                    {
                      OFFSET 3.9766 -1.54 2.3863
                      CHANNELS 3 Zrotation Xrotation Yrotation
                      JOINT lMid2_End
                      {
                        OFFSET 1.4042 -1.926 1.125
                        CHANNELS 3 Zrotation Xrotation Yrotation
                        End Site
                        {
                          OFFSET 0.014 -0.0193 0.0113
                        }
                      }
                    }
                  }
                }
                JOINT lCarpal2
                {
                  OFFSET 2.0956 0.66 -0.3894
                  CHANNELS 3 Zrotation Xrotation Yrotation
                  JOINT lRing1
                  {
                    OFFSET 5.0395 -0.09 2.4971
                    CHANNELS 3 Zrotation Xrotation Yrotation
                    JOINT lRing2
                    {
                      OFFSET 3.7921 -1.552 1.4806
                      CHANNELS 3 Zrotation Xrotation Yrotation
                      JOINT lRing2_End
                      {
                        OFFSET 1.4655 -1.808 0.9609
                        CHANNELS 3 Zrotation Xrotation Yrotation
                        End Site
                        {
                          OFFSET 0.0147 -0.0181 0.0096
                        }
                      }
                    }
                  }
                  JOINT lPinky1
                  {
                    OFFSET 4.9141 -1.269 0.3591
                    CHANNELS 3 Zrotation Xrotation Yrotation
                    JOINT lPinky2
                    {
                      OFFSET 3.1477 -1.685 0.8462
                      CHANNELS 3 Zrotation Xrotation Yrotation
                      JOINT lPinky2_End
                      {
                        OFFSET 0.8055 -1.585 0.7955
                        CHANNELS 3 Zrotation Xrotation Yrotation
                        End Site
                        {
                          OFFSET 0.0081 -0.0158 0.008
                        }
                      }
                    }
                  }
                }
              }
            }
          }
        }
        JOINT rCollar
        {
          OFFSET -1.7069 20.075 5.0056
          CHANNELS 3 Zrotation Xrotation Yrotation
          JOINT rShldr
          {
            OFFSET -13.6458 -0.047 -4.849
            CHANNELS 3 Zrotation Xrotation Yrotation
            JOINT rForeArm
            {
              OFFSET -28.3255 -0.9759 2.2888
              CHANNELS 3 Zrotation Xrotation Yrotation
              JOINT rHand
              {
                OFFSET -22.1583 -0.53 10.8316
                CHANNELS 3 Zrotation Xrotation Yrotation
                JOINT rThumb1
                {
                  OFFSET -0.786 0.112 2.5817
                  CHANNELS 3 Zrotation Xrotation Yrotation
                  JOINT rThumb2
                  {
                    OFFSET -0.3601 -0.878 4.2331
                    CHANNELS 3 Zrotation Xrotation Yrotation
                    JOINT rThumb2_End
                    {
                      OFFSET -1.8127 -1.216 2.2227
                      CHANNELS 3 Zrotation Xrotation Yrotation
                      End Site
                      {
                        OFFSET -0.0181 -0.0122 0.0222
                      }
                    }
                  }
                }
                JOINT rCarpal1
                {
                  OFFSET -0.9571 1.114 1.7695
                  CHANNELS 3 Zrotation Xrotation Yrotation
                  JOINT rIndex1
                  {
                    OFFSET -4.1246 0.487 4.1451
                    CHANNELS 3 Zrotation Xrotation Yrotation
                    JOINT rIndex2
                    {
                      OFFSET -3.4052 -1.454 2.7682
                      CHANNELS 3 Zrotation Xrotation Yrotation
                      JOINT rIndex2_End
                      {
                        OFFSET -1.4531 -1.795 1.2713
                        CHANNELS 3 Zrotation Xrotation Yrotation
                        End Site
                        {
                          OFFSET -0.0145 -0.018 0.0127
                        }
                      }
                    }
                  }
                  JOINT rMid1
                  {
                    OFFSET -5.6954 0.21 2.1184
                    CHANNELS 3 Zrotation Xrotation Yrotation
                    JOINT rMid2
                    {
                      OFFSET -3.9766 -1.54 2.3863
                      CHANNELS 3 Zrotation Xrotation Yrotation
                      JOINT rMid2_End
                      {
                        OFFSET -1.4042 -1.926 1.125
                        CHANNELS 3 Zrotation Xrotation Yrotation
                        End Site
                        {
                          OFFSET -0.014 -0.0193 0.0113
                        }
                      }
                    }
                  }
                }
                JOINT rCarpal2
                {
                  OFFSET -2.0956 0.66 -0.3894
                  CHANNELS 3 Zrotation Xrotation Yrotation
                  JOINT rRing1
                  {
                    OFFSET -5.0395 -0.09 2.4971
                    CHANNELS 3 Zrotation Xrotation Yrotation
                    JOINT rRing2
                    {
                      OFFSET -3.7921 -1.552 1.4806
                      CHANNELS 3 Zrotation Xrotation Yrotation
                      JOINT rRing2_End
                      {
                        OFFSET -1.4655 -1.808 0.9609
                        CHANNELS 3 Zrotation Xrotation Yrotation
                        End Site
                        {
                          OFFSET -0.0147 -0.0181 0.0096
                        }
                      }
                    }
                  }
                  JOINT rPinky1
                  {
                    OFFSET -4.9141 -1.269 0.3592
                    CHANNELS 3 Zrotation Xrotation Yrotation
                    JOINT rPinky2
                    {
                      OFFSET -3.1477 -1.685 0.8462
                      CHANNELS 3 Zrotation Xrotation Yrotation
                      JOINT rPinky2_End
                      {
                        OFFSET -0.8055 -1.585 0.7955
                        CHANNELS 3 Zrotation Xrotation Yrotation
                        End Site
                        {
                          OFFSET -0.0081 -0.0158 0.008
                        }
                      }
                    }
                  }
                }
              }
            }
          }
        }
      }
    }
  }
  JOINT lThigh
  {
    OFFSET 8.367 -8.2066 0.5982
    CHANNELS 3 Zrotation Xrotation Yrotation
    JOINT lShin
    {
      OFFSET 2.1923 -43.463 -0.4932
      CHANNELS 3 Zrotation Xrotation Yrotation
      JOINT lFoot
      {
        OFFSET 0.7333 -45.8593 -2.6451
        CHANNELS 3 Zrotation Xrotation Yrotation
        End Site
        {
          OFFSET 2.6618 -4.2699 12.3931
        }
      }
    }
  }
  JOINT rThigh
  {
    OFFSET -8.367 -8.2066 0.5982
    CHANNELS 3 Zrotation Xrotation Yrotation
    JOINT rShin
    {
      OFFSET -2.1923 -43.463 -0.4931
      CHANNELS 3 Zrotation Xrotation Yrotation
      JOINT rFoot
      {
        OFFSET -0.7333 -45.8593 -2.6451
        CHANNELS 3 Zrotation Xrotation Yrotation
        End Site
        {
          OFFSET -2.6618 -4.2699 12.3931
        }
      }
    }
  }
}
MOTION
Frames:	5
Frame Time:	0.0333333
0 91.7903 2.51682 0 0 -0 0 0 -0 0 0 -0 0 0 -0 0 0 -0 0 0 -0 0 0 -0 1.66051 0.0835086 5.75766 -0.0175111 0.895433 15.7816 7.95139e-016 -1.98785e-016 -0 5.46658e-016 -3.97569e-016 -0 5.96354e-016 0 -0 3.97569e-016 1.98785e-016 9.54166e-015 1.49089e-016 -3.97569e-016 -0 6.4605e-016 0 3.18055e-015 5.96354e-016 0 3.18055e-015 8.94531e-016 -1.98785e-016 6.36111e-015 6.4605e-016 0 3.18055e-015 5.96354e-016 0 3.18055e-015 8.94531e-016 -1.98785e-016 6.36111e-015 1.49089e-016 -3.97569e-016 -0 6.4605e-016 0 3.18055e-015 5.96354e-016 0 3.18055e-015 8.94531e-016 -1.98785e-016 6.36111e-015 6.4605e-016 0 3.18055e-015 5.96354e-016 0 3.18055e-015 8.94531e-016 -1.98785e-016 6.36111e-015 0 0 -0 -1.4496 0.0636048 -5.0245 -1.74811 1.20616 -16.8394 -1.19271e-015 1.98785e-016 -3.18055e-015 -3.97569e-016 1.98785e-016 -3.18055e-015 -2.98177e-016 1.98785e-016 -3.18055e-015 -2.98177e-016 3.97569e-016 -0 4.96962e-016 0 -6.36111e-015 -9.93923e-017 3.97569e-016 -0 -8.94531e-016 5.96354e-016 -0 -3.97569e-016 3.97569e-016 -0 -9.93923e-017 3.97569e-016 -0 -8.94531e-016 5.96354e-016 -0 -3.97569e-016 3.97569e-016 -0 4.96962e-016 0 -6.36111e-015 -9.93923e-017 3.97569e-016 -0 -8.94531e-016 5.96354e-016 -0 -3.97569e-016 3.97569e-016 -0 -9.93923e-017 3.97569e-016 -0 -8.94531e-016 5.96354e-016 -0 -3.97569e-016 3.97569e-016 -0 -4.66111 -0.998717 0.12318 0.00986924 1.54847 0.176523 4.65186 -0.572283 -0.254274 4.66111 -0.998765 -0.123176 -0.00986867 1.54869 -0.176537 -4.65186 -0.572453 0.25427 
0.14274 32.4783 0.61043 -3.97613 16.308 -166.097 -0.670984 22.3204 0.0645882 -1.5778 44.638 0.506712 -1.5778 44.638 0.506708 -8.59904e-005 -20.4881 -2.74489e-005 -3.13923e-006 -2.28335 1.75014e-006 -5.23785 -23.8243 8.13008 -23.4497 33.9325 -91.998 44.205 -22.5365 -3.93653 30.5596 12.5367 0.997021 1.86033e-006 -1.20711e-007 1.93388e-006 -1.06406e-006 5.255e-007 2.82124e-006 1.98104e-006 1.73962e-006 -4.34595e-006 2.64834e-031 -1.59028e-015 9.54166e-015 1.86033e-006 -1.20711e-007 1.93388e-006 -1.06406e-006 5.255e-007 2.82124e-006 1.98104e-006 1.73962e-006 -4.34595e-006 1.86033e-006 -1.20711e-007 1.93388e-006 -1.06406e-006 5.255e-007 2.82124e-006 1.98104e-006 1.73962e-006 -4.34595e-006 2.64834e-031 -1.59028e-015 9.54166e-015 1.86033e-006 -1.20711e-007 1.93388e-006 -1.06406e-006 5.255e-007 2.82124e-006 1.98104e-006 1.73962e-006 -4.34595e-006 1.86033e-006 -1.20711e-007 1.93388e-006 -1.06406e-006 5.255e-007 2.82124e-006 1.98104e-006 1.73962e-006 -4.34595e-006 4.37787 -22.8331 -9.31741 23.2966 33.5487 91.2874 -46.8609 -22.8948 3.57317 -23.7212 11.5103 -3.18467 -6.36111e-015 7.95139e-015 -6.36111e-015 -8.49892e-007 -1.40523e-006 4.17162e-007 -9.54166e-015 -1.59028e-015 3.18055e-015 -3.18055e-015 0 -3.18055e-015 -3.18055e-015 1.11319e-014 3.18055e-015 -8.49892e-007 -1.40523e-006 4.17162e-007 -6.36111e-015 -1.59028e-015 -0 -3.18055e-015 1.11319e-014 3.18055e-015 -8.49892e-007 -1.40523e-006 4.17162e-007 -6.36111e-015 -1.59028e-015 -0 -3.18055e-015 0 -3.18055e-015 -3.18055e-015 1.11319e-014 3.18055e-015 -8.49892e-007 -1.40523e-006 4.17162e-007 -6.36111e-015 -1.59028e-015 -0 -3.18055e-015 1.11319e-014 3.18055e-015 -8.49892e-007 -1.40523e-006 4.17162e-007 -6.36111e-015 -1.59028e-015 -0 36.1384 -17.5497 0.454445 165.026 63.1036 -158.066 -17.0899 62.6725 -6.13512 -34.4133 -17.4522 -2.31022 -165.799 60.8941 158.42 18.4927 59.9356 3.23923 
1.26865 36.579 0.301245 -8.67993e-015 13.3351 -180 -0.615914 20.028 0.0559705 -1.39696 40.0539 0.40024 -1.39696 40.0539 0.400239 4.57511e-006 -19.5145 1.5706e-006 8.02285e-008 -2.85674 5.28432e-008 -5.00536 -21.6457 7.22253 -23.0451 37.887 -87.4131 40.0482 -20.309 -1.17617 29.2436 10.6989 0.288327 1.76556e-030 6.36111e-015 -1.59028e-014 2.9489e-006 1.36562e-006 3.21407e-007 -6.8281e-007 1.47445e-006 4.99663e-007 -3.18055e-015 6.36111e-015 -3.18055e-015 6.36111e-015 -3.18055e-015 -3.18055e-015 2.9489e-006 1.36562e-006 3.21407e-007 -6.8281e-007 1.47445e-006 4.99663e-007 6.36111e-015 -3.18055e-015 -3.18055e-015 2.9489e-006 1.36562e-006 3.21407e-007 -6.8281e-007 1.47445e-006 4.99663e-007 -3.18055e-015 6.36111e-015 -3.18055e-015 6.36111e-015 -3.18055e-015 -3.18055e-015 2.9489e-006 1.36562e-006 3.21407e-007 -6.8281e-007 1.47445e-006 4.99663e-007 6.36111e-015 -3.18055e-015 -3.18055e-015 2.9489e-006 1.36562e-006 3.21407e-007 -6.8281e-007 1.47445e-006 4.99663e-007 4.26455 -20.7713 -8.2822 22.9795 37.4709 86.8125 -42.7381 -20.5476 0.691121 -22.9174 9.89244 -2.17655 6.70266e-008 6.36687e-007 -3.03617e-006 -3.52478e-006 2.74329e-006 -1.12915e-006 -3.18055e-015 -3.18055e-015 6.36111e-015 7.06225e-031 6.36111e-015 -6.36111e-015 6.70266e-008 6.36687e-007 -3.03617e-006 -3.52478e-006 2.74329e-006 -1.12915e-006 3.53113e-031 -6.36111e-015 3.18055e-015 6.70266e-008 6.36687e-007 -3.03617e-006 -3.52478e-006 2.74329e-006 -1.12915e-006 3.53113e-031 -6.36111e-015 3.18055e-015 7.06225e-031 6.36111e-015 -6.36111e-015 6.70266e-008 6.36687e-007 -3.03617e-006 -3.52478e-006 2.74329e-006 -1.12915e-006 3.53113e-031 -6.36111e-015 3.18055e-015 6.70266e-008 6.36687e-007 -3.03617e-006 -3.52478e-006 2.74329e-006 -1.12915e-006 3.53113e-031 -6.36111e-015 3.18055e-015 33.727 -18.4175 -0.369813 164.506 70.6535 -158.108 -14.5599 58.4944 -7.49157 -32.118 -18.3743 -1.2735 -165.473 68.5968 158.799 15.525 55.9735 5.08311 
1.26928 36.2833 0.357584 -8.40544e-015 11.1952 -180 -0.607234 19.3201 0.0383548 -1.35711 38.6385 0.341889 -1.35711 38.6384 0.341888 -4.02525e-005 -19.9246 -1.33631e-005 -2.16804e-007 -3.54181 2.13975e-007 -4.9046 -21.1188 6.98307 -23.2182 37.5351 -87.3614 38.6158 -19.5309 0.080071 29.9286 9.83971 -0.21545 0 0 -0 -3.18055e-015 0 -9.54166e-015 3.4188e-007 -7.36919e-007 -2.5012e-007 0 0 -0 -3.18055e-015 0 -0 0 3.18055e-015 -0 3.4188e-007 -7.36919e-007 -2.5012e-007 -3.18055e-015 0 -0 0 3.18055e-015 -0 3.4188e-007 -7.36919e-007 -2.5012e-007 0 0 -0 -3.18055e-015 0 -0 0 3.18055e-015 -0 3.4188e-007 -7.36919e-007 -2.5012e-007 -3.18055e-015 0 -0 0 3.18055e-015 -0 3.4188e-007 -7.36919e-007 -2.5012e-007 4.19946 -20.2826 -8.00436 23.1521 37.1879 86.847 -41.3456 -19.6857 -0.604807 -23.6051 9.16051 -1.49744 0 0 -3.18055e-015 3.18055e-015 3.18055e-015 6.36111e-015 -3.53113e-031 -3.18055e-015 -6.36111e-015 -1.76556e-031 -3.18055e-015 -3.18055e-015 6.36111e-015 0 6.36111e-015 3.53113e-031 6.36111e-015 -3.18055e-015 -3.18055e-015 6.36111e-015 -0 6.36111e-015 0 6.36111e-015 3.53113e-031 6.36111e-015 -3.18055e-015 -3.18055e-015 6.36111e-015 -0 -1.76556e-031 -3.18055e-015 -3.18055e-015 6.36111e-015 0 6.36111e-015 3.53113e-031 6.36111e-015 -3.18055e-015 -3.18055e-015 6.36111e-015 -0 6.36111e-015 0 6.36111e-015 3.53113e-031 6.36111e-015 -3.18055e-015 -3.18055e-015 6.36111e-015 -0 34.1206 -20.6772 -0.567419 167.592 70.2479 -160.683 -13.9519 58.67 -8.75703 -32.5531 -20.6897 -1.10663 -168.21 68.1651 161.043 14.9046 56.1676 6.32159 
1.26976 35.9812 0.421714 -8.1341e-015 9.04825 -180 -0.598762 18.6095 0.0209737 -1.31975 37.2176 0.28587 -1.31975 37.2176 0.285869 2.65635e-007 -20.3369 1.19e-006 3.47985e-007 -4.22809 -3.21563e-007 -4.80182 -20.5922 6.7434 -23.3902 37.1829 -87.3113 37.1677 -18.7804 1.35464 30.6049 8.9739 -0.707913 -6.36111e-015 3.18055e-015 6.36111e-015 0 6.36111e-015 -0 3.18055e-015 0 3.18055e-015 -6.36111e-015 0 6.36111e-015 -9.54166e-015 3.18055e-015 1.27222e-014 -6.36111e-015 9.54166e-015 -6.36111e-015 -6.36111e-015 3.18055e-015 3.18055e-015 -9.54166e-015 3.18055e-015 1.27222e-014 -6.36111e-015 9.54166e-015 -6.36111e-015 -6.36111e-015 3.18055e-015 3.18055e-015 -6.36111e-015 0 6.36111e-015 -9.54166e-015 3.18055e-015 1.27222e-014 -6.36111e-015 9.54166e-015 -6.36111e-015 -6.36111e-015 3.18055e-015 3.18055e-015 -9.54166e-015 3.18055e-015 1.27222e-014 -6.36111e-015 9.54166e-015 -6.36111e-015 -6.36111e-015 3.18055e-015 3.18055e-015 4.13203 -19.7941 -7.72673 23.3243 36.9049 86.8826 -39.9359 -18.8514 -1.91962 -24.2832 8.41998 -0.828029 1.38026e-006 2.93966e-006 -9.46928e-007 -6.36111e-015 -9.54166e-015 1.27222e-014 -3.18055e-015 0 3.18055e-015 3.18055e-015 -9.54166e-015 -6.36111e-015 1.38026e-006 2.93966e-006 -9.46928e-007 -9.54166e-015 -9.54166e-015 3.18055e-015 -6.36111e-015 -6.36111e-015 1.27222e-014 1.38026e-006 2.93966e-006 -9.46928e-007 -9.54166e-015 -9.54166e-015 3.18055e-015 -6.36111e-015 -6.36111e-015 1.27222e-014 3.18055e-015 -9.54166e-015 -6.36111e-015 1.38026e-006 2.93966e-006 -9.46928e-007 -9.54166e-015 -9.54166e-015 3.18055e-015 -6.36111e-015 -6.36111e-015 1.27222e-014 1.38026e-006 2.93966e-006 -9.46928e-007 -9.54166e-015 -9.54166e-015 3.18055e-015 -6.36111e-015 -6.36111e-015 1.27222e-014 34.5098 -22.9496 -0.755981 170.566 69.7968 -163.147 -13.3358 58.8415 -10.0316 -32.9854 -23.0183 -0.951878 -170.852 67.6951 163.192 14.2759 56.3579 7.569 
